<?xml version="1.0" encoding="utf-8"?>
<!-- Generator: Adobe Illustrator 21.0.0, SVG Export Plug-In . SVG Version: 6.00 Build 0)  -->
<svg version="1.1" id="Layer_1" xmlns="http://www.w3.org/2000/svg" xmlns:xlink="http://www.w3.org/1999/xlink" x="0px" y="0px"
	 viewBox="-50 -50 596.4 408.5" style="enable-background:new 0 0 496.4 378.5;" xml:space="preserve">
<style type="text/css">
	.st0{fill:#622280;}
	.st1{fill:#13235B;}
	.st2{fill:#6F6F6F;}
</style>
<path class="st0" d="M105.9,98.8h89.9V8.9h0C146.1,8.9,105.9,49.2,105.9,98.8L105.9,98.8z"/>
<rect x="9.2" y="8.9" class="st0" width="89.9" height="89.9"/>
<rect x="202.6" y="8.9" class="st0" width="89.9" height="89.9"/>
<rect x="396.2" y="202.7" class="st0" width="89.9" height="89.9"/>
<rect x="202.6" y="202.7" class="st1" width="89.9" height="89.9"/>
<path class="st1" d="M299.5,292.6L299.5,292.6c49.7,0,89.9-40.2,89.9-89.9v0h-89.9V292.6z"/>
<rect x="299.5" y="105.8" class="st1" width="89.9" height="89.9"/>
<rect x="299.5" y="8.9" class="st1" width="89.9" height="89.9"/>
<rect x="105.9" y="105.8" class="st0" width="89.9" height="89.9"/>
<rect x="105.9" y="202.7" class="st0" width="89.9" height="89.9"/>
</svg>
